<svg width="124" height="124" viewBox="0 0 124 124" fill="none" xmlns="http://www.w3.org/2000/svg">
<path d="M26.4417 36.1611L26.5083 36.0956L26.5667 36.0223C33.7136 27.0549 42.2573 20.1077 51.2874 17.3082C60.2221 14.5384 69.7701 15.7792 79.2274 23.4512C88.8025 31.2188 96.5657 43.6082 100.139 56.2892C103.721 69.0043 103.001 81.6365 96.188 90.1854C89.4779 98.6048 76.826 100.309 63.3036 98.4718C49.8944 96.6498 36.277 91.4203 28.4125 86.8308C20.77 82.371 15.3282 74.597 14.2401 65.5517C13.1565 56.5437 16.3704 46.067 26.4417 36.1611Z" fill="#9E77ED" stroke="#2C1C5F" stroke-width="3.1"/>
<path d="M49.6223 103.995C54.1609 97.7113 62.1701 91.5282 71.2525 85.7525C79.3735 80.5882 88.2068 75.8376 95.9205 71.6892C96.8039 71.2141 97.6727 70.7469 98.524 70.2879C102.652 68.0619 106.384 66.0209 109.36 64.2156C112.283 62.4434 114.665 60.7904 115.937 59.3188C116.547 58.6124 117.18 57.6361 117.089 56.5012C116.985 55.2119 116.04 54.4304 115.11 53.9902C114.177 53.5483 112.92 53.2691 111.41 53.0908C109.874 52.9093 107.96 52.8202 105.643 52.8202C93.7873 52.8202 86.237 51.8433 81.7744 50.2655C79.5503 49.4792 78.2342 48.5914 77.5081 47.7328C76.8259 46.926 76.5939 46.0657 76.7021 45.0697C76.8172 44.0099 77.3283 42.7452 78.27 41.2773C79.2037 39.8221 80.499 38.2616 82.0578 36.6235C85.1659 33.3575 89.1729 29.9343 93.109 26.5717L93.1677 26.5216C97.0778 23.1812 100.943 19.8774 103.572 16.9631C104.882 15.5102 105.975 14.0581 106.598 12.6641C107.223 11.2641 107.48 9.66065 106.643 8.19153C105.846 6.79355 104.289 5.94598 102.369 5.41905C100.408 4.88116 97.7726 4.59557 94.3878 4.55361C87.606 4.46954 77.4821 5.36331 62.9958 7.48306C55.5621 8.57082 50.76 9.42923 47.729 10.7373C46.1649 11.4123 44.9552 12.2524 44.0864 13.3997C43.2191 14.5451 42.7943 15.862 42.5668 17.305C42.3432 18.7234 42.2951 20.3776 42.2594 22.2396C42.2547 22.4839 42.2503 22.7329 42.2457 22.9869C42.215 24.6999 42.1802 26.639 42.0473 28.8883C41.7433 34.0335 40.9243 40.8099 38.4482 49.8558C37.2334 54.2938 30.1704 80.26 27.9978 98.8109C27.4544 103.451 27.207 107.703 27.4544 111.071C27.578 112.754 27.8292 114.281 28.263 115.551C28.6912 116.804 29.3514 117.965 30.4031 118.701C31.5199 119.483 32.8426 119.623 34.2077 119.262C35.5179 118.915 36.9083 118.102 38.3836 116.918C41.3403 114.543 45.0337 110.349 49.6223 103.995Z" fill="#E9D7FE" stroke="#2C1C5F" stroke-width="3.1"/>
<path d="M91.8343 60.9835C91.8343 79.226 77.1799 93.9909 59.1316 93.9909C41.0833 93.9909 26.4289 79.226 26.4289 60.9835C26.4289 42.7411 41.0833 27.9761 59.1316 27.9761C77.1799 27.9761 91.8343 42.7411 91.8343 60.9835Z" fill="#F9F5FF" stroke="#2C1C5F" stroke-width="3.1"/>
</svg>
