<svg width="336" height="100" viewBox="0 0 336 100" fill="none" xmlns="http://www.w3.org/2000/svg">
<path d="M21.5326 29.3781L21.5993 29.3125L21.6576 29.2393C27.4001 22.034 34.2442 16.4798 41.449 14.2462C48.5583 12.0423 56.1554 13.0217 63.706 19.1469C71.3743 25.3676 77.6032 35.3031 80.4695 45.4763C83.3455 55.6837 82.7469 65.7543 77.3378 72.5412C72.0321 79.1984 61.9777 80.5935 51.0905 79.1142C40.3165 77.6502 29.372 73.4462 23.0624 69.7642C16.975 66.2118 12.6459 60.0228 11.7804 52.8285C10.9194 45.6716 13.4661 37.3121 21.5326 29.3781Z" fill="#9E77ED" stroke="#2C1C5F" stroke-width="3.1"/>
<path d="M40.2611 84.0429C43.8859 79.0241 50.3033 74.0629 57.6226 69.4084C64.162 65.2499 71.2758 61.424 77.4976 58.0779C78.2099 57.6949 78.9104 57.3181 79.5971 56.9478C82.9258 55.153 85.9415 53.5037 88.3494 52.0433C90.7028 50.616 92.6636 49.2612 93.7242 48.0339C94.2291 47.4496 94.809 46.582 94.7253 45.5414C94.6292 44.3465 93.7522 43.6448 92.9592 43.2694C92.1626 42.8921 91.1106 42.6623 89.8821 42.5172C88.6273 42.369 87.0708 42.297 85.1957 42.297C75.6415 42.297 69.5954 41.5084 66.047 40.2539C64.28 39.6291 63.2736 38.9368 62.7355 38.3005C62.2414 37.7161 62.0758 37.1052 62.1547 36.379C62.2405 35.5889 62.6266 34.6142 63.3734 33.4502C64.1122 32.2987 65.1428 31.0556 66.3929 29.7419C68.8887 27.1193 72.1106 24.3668 75.2906 21.6501L75.33 21.6165C78.478 18.9272 81.6127 16.2488 83.7483 13.8808C84.8121 12.7012 85.7183 11.5024 86.2397 10.3353C86.7637 9.16232 87.0046 7.75932 86.2627 6.45752C85.5613 5.22687 84.2115 4.51348 82.6348 4.08089C81.0181 3.63734 78.8635 3.40627 76.1228 3.37229C70.6293 3.30419 62.446 4.02784 50.7596 5.73789C44.7768 6.61333 40.8604 7.30983 38.3722 8.38368C37.0795 8.94156 36.0554 9.64643 35.3143 10.6251C34.5747 11.6019 34.2196 12.7167 34.0317 13.909C33.8476 15.0765 33.8089 16.4311 33.7801 17.9294C33.7764 18.1269 33.7727 18.3279 33.7691 18.5329C33.7443 19.9144 33.7163 21.472 33.6095 23.2793C33.3655 27.41 32.708 32.854 30.7172 40.1271C29.7385 43.7024 24.036 64.6647 22.2808 79.6513C21.8418 83.4001 21.6398 86.851 21.8414 89.5954C21.942 90.9661 22.1475 92.2256 22.5088 93.2832C22.8644 94.3242 23.4252 95.3279 24.3466 95.9726C25.333 96.6628 26.4946 96.7785 27.6636 96.469C28.7776 96.1741 29.937 95.4902 31.1422 94.5224C33.559 92.5817 36.5565 89.1723 40.2611 84.0429Z" fill="#E9D7FE" stroke="#2C1C5F" stroke-width="3.1"/>
<path d="M73.7598 49.1803C73.7598 63.7287 62.0735 75.4991 47.6866 75.4991C33.2997 75.4991 21.6135 63.7287 21.6135 49.1803C21.6135 34.6318 33.2997 22.8614 47.6866 22.8614C62.0735 22.8614 73.7598 34.6318 73.7598 49.1803Z" fill="#F9F5FF" stroke="#2C1C5F" stroke-width="3.1"/>
<path d="M117.6 72.832C113.205 72.832 109.685 71.552 107.04 68.992C104.437 66.3893 103.136 62.5707 103.136 57.536C103.136 55.2747 103.435 52.928 104.032 50.496C104.672 48.064 105.717 45.6533 107.168 43.264C106.357 43.9893 105.589 44.352 104.864 44.352C103.627 44.352 103.008 43.3707 103.008 41.408C103.008 40 103.307 38.8693 103.904 38.016C104.501 37.1627 105.077 36.48 105.632 35.968C106.571 35.1573 107.765 34.3467 109.216 33.536C110.667 32.6827 112.373 31.9787 114.336 31.424C116.299 30.8693 118.496 30.592 120.928 30.592C126.645 30.592 130.933 32.2133 133.792 35.456C136.693 38.656 138.144 43.1147 138.144 48.832C138.144 52.2027 137.653 55.3387 136.672 58.24C135.691 61.1413 134.283 63.68 132.448 65.856C130.656 68.032 128.501 69.7387 125.984 70.976C123.467 72.2133 120.672 72.832 117.6 72.832ZM119.84 65.664C121.973 65.664 124.064 65.1733 126.112 64.192C128.203 63.2107 129.909 61.6533 131.232 59.52C132.597 57.344 133.28 54.528 133.28 51.072C133.28 47.8293 132.661 45.248 131.424 43.328C130.187 41.3653 128.608 39.9573 126.688 39.104C124.811 38.208 122.827 37.76 120.736 37.76C119.157 37.76 117.728 37.9733 116.448 38.4C115.211 38.784 114.101 39.2107 113.12 39.68C112.011 41.3867 110.965 43.4773 109.984 45.952C109.003 48.384 108.512 50.9653 108.512 53.696C108.512 56.4267 109.045 58.688 110.112 60.48C111.179 62.2293 112.565 63.5307 114.272 64.384C116.021 65.2373 117.877 65.664 119.84 65.664ZM151.388 72.896C150.193 72.896 149.169 72.5547 148.316 71.872C147.505 71.1467 147.036 69.824 146.908 67.904C146.822 66.4533 146.63 64.832 146.332 63.04C146.076 61.248 145.756 59.5627 145.372 57.984C144.988 56.4053 144.54 55.2107 144.028 54.4C143.729 53.9307 143.388 53.5893 143.004 53.376C142.662 53.12 142.129 52.9493 141.404 52.864C140.636 52.8213 140.252 52.2667 140.252 51.2C140.252 49.4507 140.721 48.1707 141.66 47.36C142.598 46.5067 143.665 46.08 144.86 46.08C146.14 46.08 147.185 46.5067 147.996 47.36C148.806 48.1707 149.425 49.28 149.852 50.688C150.321 52.0533 150.641 53.5893 150.812 55.296C151.025 57.0027 151.132 58.7307 151.132 60.48C151.132 61.12 151.11 61.76 151.068 62.4C151.068 62.9973 151.068 63.5947 151.068 64.192C151.068 64.6187 151.153 64.9813 151.324 65.28C151.494 65.536 151.921 65.664 152.604 65.664C153.542 65.664 154.652 65.4293 155.932 64.96C157.212 64.448 158.321 63.616 159.26 62.464C160.241 61.312 160.732 59.776 160.732 57.856C160.732 56.8747 160.582 56.064 160.284 55.424C159.985 54.7413 159.58 54.1013 159.068 53.504C158.897 53.2907 158.748 53.0773 158.62 52.864C158.492 52.6507 158.428 52.3947 158.428 52.096C158.428 51.2853 158.748 50.6453 159.388 50.176C160.07 49.664 160.817 49.3013 161.628 49.088C162.481 48.832 163.185 48.704 163.74 48.704C164.294 48.704 164.721 48.8533 165.02 49.152C165.361 49.408 165.617 49.9413 165.788 50.752C165.958 51.3067 166.086 51.9253 166.172 52.608C166.257 53.248 166.3 53.9947 166.3 54.848C166.3 56.1707 166.236 57.2373 166.108 58.048C166.022 58.8587 165.916 59.584 165.788 60.224C165.66 60.7787 165.553 61.3333 165.468 61.888C165.425 62.4 165.404 63.0187 165.404 63.744C165.404 64.512 165.553 65.024 165.852 65.28C166.15 65.536 166.62 65.664 167.26 65.664C169.692 65.664 171.676 64.832 173.212 63.168C174.748 61.4613 175.516 59.392 175.516 56.96C175.516 56.1067 175.388 55.3173 175.132 54.592C174.876 53.824 174.428 53.0987 173.788 52.416C173.446 51.9893 173.169 51.648 172.956 51.392C172.742 51.0933 172.636 50.7307 172.636 50.304C172.636 49.536 172.977 48.832 173.66 48.192C174.385 47.552 175.217 47.04 176.156 46.656C177.137 46.2293 178.012 46.016 178.78 46.016C179.932 46.016 180.678 46.5493 181.02 47.616C181.361 48.6827 181.532 49.8987 181.532 51.264C181.532 53.568 181.19 55.9787 180.508 58.496C179.868 60.9707 178.929 63.3173 177.692 65.536C176.454 67.712 174.94 69.4827 173.148 70.848C171.356 72.2133 169.329 72.896 167.068 72.896C164.764 72.896 163.185 72.2347 162.332 70.912C161.478 69.5893 161.116 67.9893 161.244 66.112C159.964 68.0747 158.449 69.696 156.7 70.976C154.993 72.256 153.222 72.896 151.388 72.896ZM195.605 72.832C192.362 72.832 189.824 71.9147 187.989 70.08C186.197 68.2027 185.301 65.6 185.301 62.272C185.301 59.2427 185.962 56.4907 187.285 54.016C188.608 51.5413 190.378 49.5787 192.597 48.128C194.858 46.6347 197.333 45.888 200.021 45.888C202.581 45.888 204.629 46.528 206.165 47.808C207.701 49.0453 208.469 50.7093 208.469 52.8C208.469 54.464 207.957 56 206.933 57.408C205.909 58.816 204.544 59.9467 202.837 60.8C201.13 61.6107 199.232 62.016 197.141 62.016C194.581 62.016 192.49 61.44 190.869 60.288C190.912 62.2507 191.573 63.8293 192.853 65.024C194.176 66.2187 195.861 66.816 197.909 66.816C199.146 66.816 200.405 66.6027 201.685 66.176C203.008 65.7067 204.138 65.088 205.077 64.32C205.674 63.808 206.229 63.552 206.741 63.552C207.168 63.552 207.509 63.7013 207.765 64C208.064 64.256 208.213 64.5973 208.213 65.024C208.213 65.9627 207.402 67.2 205.781 68.736C202.922 71.4667 199.53 72.832 195.605 72.832ZM196.565 57.792C198.101 57.792 199.381 57.472 200.405 56.832C201.429 56.192 201.941 55.3813 201.941 54.4C201.941 53.5893 201.6 52.9707 200.917 52.544C200.234 52.0747 199.296 51.84 198.101 51.84C196.522 51.84 195.136 52.2667 193.941 53.12C192.789 53.9307 191.957 55.0827 191.445 56.576C192.042 56.96 192.81 57.2587 193.749 57.472C194.688 57.6853 195.626 57.792 196.565 57.792ZM217.594 72.64C217.082 72.64 216.548 72.5547 215.994 72.384C215.482 72.2133 215.034 71.808 214.65 71.168C214.308 70.528 214.138 69.5467 214.138 68.224C214.138 67.3707 214.223 66.2613 214.394 64.896C214.564 63.488 214.799 61.6747 215.098 59.456C215.311 58.048 215.546 56.1707 215.802 53.824C216.1 51.4347 216.25 48.9387 216.25 46.336C216.25 45.184 216.207 43.968 216.122 42.688C216.036 41.3653 215.866 40.1707 215.61 39.104C215.098 39.232 214.714 39.296 214.458 39.296C214.202 39.296 214.01 39.232 213.882 39.104C213.754 38.9333 213.69 38.6347 213.69 38.208C213.69 37.3547 213.775 36.5013 213.946 35.648C214.159 34.752 214.479 34.0053 214.906 33.408C215.332 32.8107 215.823 32.384 216.378 32.128C216.975 31.872 217.594 31.7013 218.234 31.616C219.3 31.488 220.644 31.3813 222.266 31.296C223.93 31.168 225.658 31.0613 227.45 30.976C229.284 30.8907 230.948 30.848 232.442 30.848C234.447 30.848 235.919 30.8693 236.858 30.912C237.839 30.9547 238.586 31.0187 239.098 31.104C240.207 31.2747 240.762 31.872 240.762 32.896C240.762 33.6213 240.612 34.2827 240.314 34.88C240.058 35.4347 239.738 35.9467 239.354 36.416C238.884 37.0987 238.372 37.5893 237.818 37.888C237.306 38.144 236.623 38.2293 235.77 38.144C235.044 38.0587 234.042 37.9947 232.762 37.952C231.524 37.8667 230.095 37.824 228.474 37.824C227.791 37.824 226.895 37.8453 225.786 37.888C224.676 37.9307 223.503 37.9947 222.266 38.08C222.223 39.5307 222.095 41.1947 221.882 43.072C221.668 44.9067 221.434 46.784 221.178 48.704C222.33 48.6187 223.716 48.5547 225.338 48.512C226.959 48.4267 228.623 48.3627 230.33 48.32C232.036 48.2773 233.551 48.256 234.874 48.256C235.642 48.256 236.196 48.3627 236.538 48.576C236.879 48.7467 237.05 49.152 237.05 49.792C237.05 50.5173 236.858 51.3067 236.474 52.16C236.132 52.9707 235.663 53.6747 235.066 54.272C234.511 54.8693 233.914 55.1467 233.274 55.104C232.207 55.0187 230.692 54.9547 228.73 54.912C226.81 54.8693 224.783 54.848 222.65 54.848H220.602C220.516 55.7867 220.431 56.7253 220.345 57.664C220.303 58.56 220.282 59.392 220.282 60.16C220.282 61.6533 220.431 62.976 220.73 64.128C221.028 65.2373 221.604 66.1973 222.458 67.008C223.012 67.5627 223.29 68.2027 223.29 68.928C223.29 69.8667 222.756 70.72 221.69 71.488C220.623 72.256 219.258 72.64 217.594 72.64ZM247.731 72.64C246.493 72.64 245.576 72.2987 244.979 71.616C244.381 70.9333 244.083 69.7387 244.083 68.032C244.083 67.2213 244.147 66.176 244.275 64.896C244.403 63.616 244.552 62.2293 244.723 60.736C244.979 58.9013 245.192 56.9813 245.363 54.976C245.576 52.9707 245.683 51.0507 245.683 49.216C245.683 46.6133 245.555 43.9253 245.299 41.152C245.085 38.336 244.445 35.8827 243.379 33.792C242.995 32.9387 242.803 32.32 242.803 31.936C242.803 31.3813 243.037 30.848 243.507 30.336C244.019 29.824 244.637 29.3973 245.363 29.056C246.088 28.672 246.792 28.48 247.475 28.48C248.584 28.48 249.416 28.992 249.97 30.016C250.525 30.9973 250.888 32.3627 251.059 34.112C251.229 35.8187 251.315 37.7813 251.315 40C251.315 43.3707 251.165 46.2933 250.867 48.768C250.611 51.2427 250.355 53.4187 250.099 55.296C249.928 56.5333 249.757 57.7067 249.587 58.816C249.459 59.9253 249.395 60.928 249.395 61.824C249.395 63.3173 249.629 64.4053 250.099 65.088C250.611 65.728 251.421 66.368 252.531 67.008C252.829 67.1787 253.043 67.3493 253.171 67.52C253.341 67.648 253.427 67.8613 253.427 68.16C253.427 68.5013 253.256 69.0347 252.915 69.76C252.573 70.4853 251.976 71.1467 251.123 71.744C250.312 72.3413 249.181 72.64 247.731 72.64ZM267.669 72.832C264.725 72.832 262.357 72.0427 260.565 70.464C258.816 68.8427 257.941 66.4747 257.941 63.36C257.941 61.9093 258.133 60.5013 258.517 59.136C258.944 57.7707 259.498 56.4907 260.181 55.296C259.498 55.7227 258.986 55.936 258.645 55.936C258.133 55.936 257.77 55.6587 257.557 55.104C257.386 54.5067 257.301 53.9307 257.301 53.376C257.301 52.3947 257.493 51.6267 257.877 51.072C258.304 50.4747 258.709 50.0267 259.093 49.728C259.989 48.96 261.397 48.128 263.317 47.232C265.237 46.2933 267.541 45.824 270.229 45.824C273.898 45.824 276.736 46.848 278.741 48.896C280.789 50.944 281.813 53.8027 281.813 57.472C281.813 60.3307 281.216 62.9333 280.021 65.28C278.826 67.584 277.162 69.4187 275.029 70.784C272.938 72.1493 270.485 72.832 267.669 72.832ZM269.653 66.304C271.786 66.304 273.578 65.6427 275.029 64.32C276.522 62.9547 277.269 61.1627 277.269 58.944C277.269 56.64 276.522 54.9973 275.029 54.016C273.536 53.0347 271.808 52.544 269.845 52.544C268.949 52.544 268.138 52.6293 267.413 52.8C266.688 52.9707 266.005 53.184 265.365 53.44C264.768 54.2933 264.234 55.2533 263.765 56.32C263.296 57.3867 263.061 58.56 263.061 59.84C263.061 61.9733 263.701 63.5947 264.981 64.704C266.261 65.7707 267.818 66.304 269.653 66.304ZM295.2 72.896C294.005 72.896 292.981 72.5547 292.128 71.872C291.317 71.1467 290.848 69.824 290.72 67.904C290.635 66.4533 290.443 64.832 290.144 63.04C289.888 61.248 289.568 59.5627 289.184 57.984C288.8 56.4053 288.352 55.2107 287.84 54.4C287.541 53.9307 287.2 53.5893 286.816 53.376C286.475 53.12 285.941 52.9493 285.216 52.864C284.448 52.8213 284.064 52.2667 284.064 51.2C284.064 49.4507 284.533 48.1707 285.472 47.36C286.411 46.5067 287.477 46.08 288.672 46.08C289.952 46.08 290.997 46.5067 291.808 47.36C292.619 48.1707 293.237 49.28 293.664 50.688C294.133 52.0533 294.453 53.5893 294.624 55.296C294.837 57.0027 294.944 58.7307 294.944 60.48C294.944 61.12 294.923 61.76 294.88 62.4C294.88 62.9973 294.88 63.5947 294.88 64.192C294.88 64.6187 294.965 64.9813 295.136 65.28C295.307 65.536 295.733 65.664 296.416 65.664C297.355 65.664 298.464 65.4293 299.744 64.96C301.024 64.448 302.133 63.616 303.072 62.464C304.053 61.312 304.544 59.776 304.544 57.856C304.544 56.8747 304.395 56.064 304.096 55.424C303.797 54.7413 303.392 54.1013 302.88 53.504C302.709 53.2907 302.56 53.0773 302.432 52.864C302.304 52.6507 302.24 52.3947 302.24 52.096C302.24 51.2853 302.56 50.6453 303.2 50.176C303.883 49.664 304.629 49.3013 305.44 49.088C306.293 48.832 306.997 48.704 307.552 48.704C308.107 48.704 308.533 48.8533 308.832 49.152C309.173 49.408 309.429 49.9413 309.6 50.752C309.771 51.3067 309.899 51.9253 309.984 52.608C310.069 53.248 310.112 53.9947 310.112 54.848C310.112 56.1707 310.048 57.2373 309.92 58.048C309.835 58.8587 309.728 59.584 309.6 60.224C309.472 60.7787 309.365 61.3333 309.28 61.888C309.237 62.4 309.216 63.0187 309.216 63.744C309.216 64.512 309.365 65.024 309.664 65.28C309.963 65.536 310.432 65.664 311.072 65.664C313.504 65.664 315.488 64.832 317.024 63.168C318.56 61.4613 319.328 59.392 319.328 56.96C319.328 56.1067 319.2 55.3173 318.944 54.592C318.688 53.824 318.24 53.0987 317.6 52.416C317.259 51.9893 316.981 51.648 316.768 51.392C316.555 51.0933 316.448 50.7307 316.448 50.304C316.448 49.536 316.789 48.832 317.472 48.192C318.197 47.552 319.029 47.04 319.968 46.656C320.949 46.2293 321.824 46.016 322.592 46.016C323.744 46.016 324.491 46.5493 324.832 47.616C325.173 48.6827 325.344 49.8987 325.344 51.264C325.344 53.568 325.003 55.9787 324.32 58.496C323.68 60.9707 322.741 63.3173 321.504 65.536C320.267 67.712 318.752 69.4827 316.96 70.848C315.168 72.2133 313.141 72.896 310.88 72.896C308.576 72.896 306.997 72.2347 306.144 70.912C305.291 69.5893 304.928 67.9893 305.056 66.112C303.776 68.0747 302.261 69.696 300.512 70.976C298.805 72.256 297.035 72.896 295.2 72.896Z" fill="#0D2B3E"/>
</svg>
