<svg width="24" height="24" viewBox="0 0 24 24" fill="none" xmlns="http://www.w3.org/2000/svg">
<path d="M5.11785 6.99893L5.13075 6.98623L5.14204 6.97206C6.52532 5.23644 8.17894 3.8918 9.92671 3.34998C11.656 2.81388 13.504 3.05403 15.3345 4.53894C17.1877 6.04235 18.6903 8.44029 19.3818 10.8947C20.0752 13.3557 19.9359 15.8006 18.6171 17.4552C17.3184 19.0848 14.8697 19.4147 12.2524 19.0591C9.65709 18.7064 7.02147 17.6943 5.4993 16.806C4.02012 15.9428 2.96687 14.4381 2.75626 12.6874C2.54652 10.9439 3.16857 8.9162 5.11785 6.99893Z" fill="#B22F2F" fill-opacity="0.2" stroke="black" stroke-width="0.6"/>
<path d="M9.6044 20.1281C10.4828 18.9119 12.033 17.7151 13.7909 16.5973C15.3627 15.5977 17.0724 14.6782 18.5654 13.8753C18.7363 13.7834 18.9045 13.6929 19.0692 13.6041C19.8683 13.1733 20.5905 12.7782 21.1666 12.4288C21.7322 12.0858 22.1933 11.7659 22.4394 11.4811C22.5576 11.3443 22.6801 11.1554 22.6624 10.9357C22.6423 10.6862 22.4594 10.5349 22.2795 10.4497C22.0989 10.3642 21.8556 10.3101 21.5634 10.2756C21.266 10.2405 20.8955 10.2233 20.4471 10.2233C18.1525 10.2233 16.6911 10.0342 15.8274 9.72881C15.3969 9.57661 15.1422 9.4048 15.0016 9.2386C14.8696 9.08246 14.8247 8.91595 14.8457 8.72317C14.8679 8.51805 14.9669 8.27326 15.1491 7.98916C15.3298 7.7075 15.5805 7.40547 15.8822 7.08842C16.4838 6.45628 17.2594 5.79372 18.0212 5.1429L18.0325 5.13321C18.7893 4.48669 19.5375 3.84725 20.0462 3.28317C20.2998 3.00198 20.5114 2.72093 20.6319 2.45111C20.7529 2.18015 20.8026 1.8698 20.6406 1.58546C20.4864 1.31488 20.1851 1.15083 19.8134 1.04885C19.4339 0.94474 18.9238 0.889466 18.2687 0.881345C16.9561 0.865073 14.9966 1.03806 12.1928 1.44833C10.754 1.65887 9.82459 1.82501 9.23794 2.07819C8.93522 2.20883 8.70108 2.37143 8.53294 2.59349C8.36507 2.81518 8.28286 3.07006 8.23882 3.34936C8.19553 3.62389 8.18623 3.94406 8.17932 4.30444C8.17841 4.35173 8.17755 4.39992 8.17666 4.44907C8.17071 4.78063 8.16398 5.15594 8.13826 5.59128C8.07942 6.58713 7.92092 7.89868 7.44166 9.64951C7.20654 10.5085 5.83951 15.5342 5.41901 19.1247C5.31384 20.0227 5.26595 20.8457 5.31383 21.4976C5.33775 21.8233 5.38637 22.1189 5.47034 22.3647C5.55321 22.6073 5.68099 22.832 5.88455 22.9744C6.1007 23.1257 6.35671 23.1529 6.62093 23.083C6.8745 23.0158 7.14362 22.8585 7.42916 22.6292C8.00144 22.1697 8.71627 21.3578 9.6044 20.1281Z" fill="#B6B0B0"/>
<path d="M9.6044 20.1281C10.4828 18.9119 12.033 17.7151 13.7909 16.5973C15.3627 15.5977 17.0724 14.6782 18.5654 13.8753C18.7363 13.7834 18.9045 13.6929 19.0692 13.6041C19.8683 13.1733 20.5905 12.7782 21.1666 12.4288C21.7322 12.0858 22.1933 11.7659 22.4394 11.4811C22.5576 11.3443 22.6801 11.1554 22.6624 10.9357C22.6423 10.6862 22.4594 10.5349 22.2795 10.4497C22.0989 10.3642 21.8556 10.3101 21.5634 10.2756C21.266 10.2405 20.8955 10.2233 20.4471 10.2233C18.1525 10.2233 16.6911 10.0342 15.8274 9.72881C15.3969 9.57661 15.1422 9.4048 15.0016 9.2386C14.8696 9.08246 14.8247 8.91595 14.8457 8.72317C14.8679 8.51805 14.9669 8.27326 15.1491 7.98916C15.3298 7.7075 15.5805 7.40547 15.8822 7.08842C16.4838 6.45628 17.2594 5.79372 18.0212 5.1429L18.0325 5.13321C18.7893 4.48669 19.5375 3.84725 20.0462 3.28317C20.2998 3.00198 20.5114 2.72093 20.6319 2.45111C20.7529 2.18015 20.8026 1.8698 20.6406 1.58546C20.4864 1.31488 20.1851 1.15083 19.8134 1.04885C19.4339 0.94474 18.9238 0.889466 18.2687 0.881345C16.9561 0.865073 14.9966 1.03806 12.1928 1.44833C10.754 1.65887 9.82459 1.82501 9.23794 2.07819C8.93522 2.20883 8.70108 2.37143 8.53294 2.59349C8.36507 2.81518 8.28286 3.07006 8.23882 3.34936C8.19553 3.62389 8.18623 3.94406 8.17932 4.30444C8.17841 4.35173 8.17755 4.39992 8.17666 4.44907C8.17071 4.78063 8.16398 5.15594 8.13826 5.59128C8.07942 6.58713 7.92092 7.89868 7.44166 9.64951C7.20654 10.5085 5.83951 15.5342 5.41901 19.1247C5.31384 20.0227 5.26595 20.8457 5.31383 21.4976C5.33775 21.8233 5.38637 22.1189 5.47034 22.3647C5.55321 22.6073 5.68099 22.832 5.88455 22.9744C6.1007 23.1257 6.35671 23.1529 6.62093 23.083C6.8745 23.0158 7.14362 22.8585 7.42916 22.6292C8.00144 22.1697 8.71627 21.3578 9.6044 20.1281Z" stroke="black" stroke-width="0.6"/>
<path d="M9.6044 20.1281C10.4828 18.9119 12.033 17.7151 13.7909 16.5973C15.3627 15.5977 17.0724 14.6782 18.5654 13.8753C18.7363 13.7834 18.9045 13.6929 19.0692 13.6041C19.8683 13.1733 20.5905 12.7782 21.1666 12.4288C21.7322 12.0858 22.1933 11.7659 22.4394 11.4811C22.5576 11.3443 22.6801 11.1554 22.6624 10.9357C22.6423 10.6862 22.4594 10.5349 22.2795 10.4497C22.0989 10.3642 21.8556 10.3101 21.5634 10.2756C21.266 10.2405 20.8955 10.2233 20.4471 10.2233C18.1525 10.2233 16.6911 10.0342 15.8274 9.72881C15.3969 9.57661 15.1422 9.4048 15.0016 9.2386C14.8696 9.08246 14.8247 8.91595 14.8457 8.72317C14.8679 8.51805 14.9669 8.27326 15.1491 7.98916C15.3298 7.7075 15.5805 7.40547 15.8822 7.08842C16.4838 6.45628 17.2594 5.79372 18.0212 5.1429L18.0325 5.13321C18.7893 4.48669 19.5375 3.84725 20.0462 3.28317C20.2998 3.00198 20.5114 2.72093 20.6319 2.45111C20.7529 2.18015 20.8026 1.8698 20.6406 1.58546C20.4864 1.31488 20.1851 1.15083 19.8134 1.04885C19.4339 0.94474 18.9238 0.889466 18.2687 0.881345C16.9561 0.865073 14.9966 1.03806 12.1928 1.44833C10.754 1.65887 9.82459 1.82501 9.23794 2.07819C8.93522 2.20883 8.70108 2.37143 8.53294 2.59349C8.36507 2.81518 8.28286 3.07006 8.23882 3.34936C8.19553 3.62389 8.18623 3.94406 8.17932 4.30444C8.17841 4.35173 8.17755 4.39992 8.17666 4.44907C8.17071 4.78063 8.16398 5.15594 8.13826 5.59128C8.07942 6.58713 7.92092 7.89868 7.44166 9.64951C7.20654 10.5085 5.83951 15.5342 5.41901 19.1247C5.31384 20.0227 5.26595 20.8457 5.31383 21.4976C5.33775 21.8233 5.38637 22.1189 5.47034 22.3647C5.55321 22.6073 5.68099 22.832 5.88455 22.9744C6.1007 23.1257 6.35671 23.1529 6.62093 23.083C6.8745 23.0158 7.14362 22.8585 7.42916 22.6292C8.00144 22.1697 8.71627 21.3578 9.6044 20.1281Z" stroke="#051075" stroke-opacity="0.67" stroke-width="0.6"/>
<path d="M17.7745 11.8033C17.7745 15.3341 14.9382 18.1918 11.445 18.1918C7.95177 18.1918 5.11543 15.3341 5.11543 11.8033C5.11543 8.27248 7.95177 5.41475 11.445 5.41475C14.9382 5.41475 17.7745 8.27248 17.7745 11.8033Z" fill="#D9D9D9" stroke="black" stroke-width="0.6"/>
</svg>
